<svg width="50" height="50" viewBox="0 0 50 50" fill="none" xmlns="http://www.w3.org/2000/svg">
<rect width="50" height="50" rx="10" fill="black"/>
<path d="M15.6 38C15.4933 38 15.44 37.9333 15.44 37.8V15H10.24C10.1067 15 10.04 14.9333 10.04 14.8L10.08 10.32C10.08 10.2133 10.1333 10.16 10.24 10.16H25.44C25.5733 10.16 25.64 10.2133 25.64 10.32V14.8C25.64 14.9333 25.5867 15 25.48 15H20.24L20.28 37.8C20.28 37.9333 20.2267 38 20.12 38H15.6Z" fill="#0096F4"/>
<path d="M26.8 38C26.6667 38 26.6 37.9333 26.6 37.8L26.68 10.32C26.68 10.2133 26.7333 10.16 26.84 10.16H39.64C39.7733 10.16 39.84 10.2133 39.84 10.32V14.84C39.84 14.9467 39.7867 15 39.68 15H31.48V21.2H39.68C39.7867 21.2 39.84 21.2667 39.84 21.4L39.88 25.92C39.88 26.0267 39.8133 26.08 39.68 26.08H31.48V37.8C31.48 37.9333 31.4133 38 31.28 38H26.8Z" fill="#F50001"/>
</svg>
