<svg width="150" height="50" viewBox="0 0 150 50" fill="none" xmlns="http://www.w3.org/2000/svg">
<rect width="150" height="50" rx="10" fill="black"/>
<path d="M14.6 38C14.4933 38 14.44 37.9333 14.44 37.8V15H9.24C9.10667 15 9.04 14.9333 9.04 14.8L9.08 10.32C9.08 10.2133 9.13333 10.16 9.24 10.16H24.44C24.5733 10.16 24.64 10.2133 24.64 10.32V14.8C24.64 14.9333 24.5867 15 24.48 15H19.24L19.28 37.8C19.28 37.9333 19.2267 38 19.12 38H14.6ZM26.7756 38C26.669 38 26.6156 37.9333 26.6156 37.8L26.6556 10.32C26.6556 10.2133 26.7223 10.16 26.8556 10.16H31.2956C31.429 10.16 31.4956 10.2133 31.4956 10.32L31.4556 21.2H37.4556V10.32C37.4556 10.2133 37.509 10.16 37.6156 10.16H42.0556C42.189 10.16 42.2556 10.2133 42.2556 10.32L42.3356 37.8C42.3356 37.9333 42.269 38 42.1356 38H37.6556C37.5223 38 37.4556 37.9333 37.4556 37.8V26.04H31.4556V37.8C31.4556 37.9333 31.4023 38 31.2956 38H26.7756ZM45.76 38C45.6533 38 45.6 37.9333 45.6 37.8L45.64 10.32C45.64 10.2133 45.6933 10.16 45.8 10.16H58.64C58.7467 10.16 58.8 10.2267 58.8 10.36V14.84C58.8 14.9467 58.7467 15 58.64 15H50.44V21.24H58.64C58.7467 21.24 58.8 21.2933 58.8 21.4L58.84 25.92C58.84 26.0267 58.7867 26.08 58.68 26.08H50.44V33.08H58.68C58.7867 33.08 58.84 33.1467 58.84 33.28V37.84C58.84 37.9467 58.7867 38 58.68 38H45.76ZM69.1719 38.4C67.7319 38.4 66.4119 38.04 65.2119 37.32C64.0385 36.5733 63.0919 35.6 62.3719 34.4C61.6519 33.1733 61.2919 31.8267 61.2919 30.36L61.3319 17.68C61.3319 16.2133 61.6785 14.88 62.3719 13.68C63.0919 12.48 64.0519 11.52 65.2519 10.8C66.4519 10.08 67.7585 9.72 69.1719 9.72C70.6119 9.72 71.9185 10.08 73.0919 10.8C74.2652 11.52 75.1985 12.48 75.8919 13.68C76.6119 14.88 76.9719 16.2133 76.9719 17.68L77.0119 30.36C77.0119 31.8267 76.6519 33.1733 75.9319 34.4C75.2385 35.6 74.2919 36.5733 73.0919 37.32C71.9185 38.04 70.6119 38.4 69.1719 38.4ZM69.1719 33.56C69.9719 33.56 70.6652 33.24 71.2519 32.6C71.8652 31.9333 72.1719 31.1867 72.1719 30.36L72.1319 17.68C72.1319 16.8 71.8519 16.0533 71.2919 15.44C70.7319 14.8267 70.0252 14.52 69.1719 14.52C68.3452 14.52 67.6385 14.8267 67.0519 15.44C66.4652 16.0267 66.1719 16.7733 66.1719 17.68V30.36C66.1719 31.24 66.4652 32 67.0519 32.64C67.6385 33.2533 68.3452 33.56 69.1719 33.56Z" fill="#0096F4"/>
<path d="M84.8 38C84.6667 38 84.6 37.9333 84.6 37.8L84.68 10.32C84.68 10.2133 84.7333 10.16 84.84 10.16H97.64C97.7733 10.16 97.84 10.2133 97.84 10.32V14.84C97.84 14.9467 97.7867 15 97.68 15H89.48V21.2H97.68C97.7867 21.2 97.84 21.2667 97.84 21.4L97.88 25.92C97.88 26.0267 97.8133 26.08 97.68 26.08H89.48V37.8C89.48 37.9333 89.4133 38 89.28 38H84.8ZM101.987 38C101.88 38 101.827 37.9333 101.827 37.8L101.867 10.36C101.867 10.2267 101.933 10.16 102.067 10.16H106.507C106.64 10.16 106.707 10.2267 106.707 10.36L106.667 33.08H114.907C115.04 33.08 115.107 33.1467 115.107 33.28V37.8C115.107 37.9333 115.04 38 114.907 38H101.987ZM117.925 38C117.792 38 117.725 37.9333 117.725 37.8L117.765 10.32C117.765 10.2133 117.818 10.16 117.925 10.16H122.405C122.512 10.16 122.565 10.2133 122.565 10.32L122.605 37.8C122.605 37.9333 122.552 38 122.445 38H117.925ZM124.883 38C124.777 38 124.737 37.9333 124.763 37.8L129.323 23.52L124.843 10.32C124.817 10.2133 124.857 10.16 124.963 10.16H129.443C129.577 10.16 129.657 10.2133 129.683 10.32L132.363 19.84L135.083 10.32C135.11 10.2133 135.19 10.16 135.323 10.16H139.763C139.87 10.16 139.91 10.2133 139.883 10.32L135.403 23.48L139.923 37.8C139.977 37.9333 139.937 38 139.803 38H135.323C135.217 38 135.137 37.9333 135.083 37.8L132.363 27.48L129.603 37.8C129.577 37.9333 129.497 38 129.363 38H124.883Z" fill="#F50001"/>
</svg>
